<svg id="Layer_6" data-name="Layer 6" xmlns="http://www.w3.org/2000/svg" viewBox="0 0 263.69 340.42"><polygon points="263.69 309.04 263.69 340.42 10.22 340.42 43.6 309.04 263.69 309.04"/><path d="M174.13,367.57l-56,52.64,3.21-76.77c1.19-.31,2.39-.58,3.59-.79a45.92,45.92,0,0,1,47.42,21.68C173,365.39,173.59,366.47,174.13,367.57Z" transform="translate(-118.16 -79.79)"/><path d="M287.38,122.16,177.81,361.72a52,52,0,0,0-54.42-24.89L233,97.27a29.92,29.92,0,1,1,54.42,24.89Z" transform="translate(-118.16 -79.79)"/><path d="M174.13,367.57c-.54-1.1-1.12-2.18-1.75-3.24Z" transform="translate(-118.16 -79.79)"/><path d="M174.13,367.57c-.54-1.1-1.12-2.18-1.75-3.24Z" transform="translate(-118.16 -79.79)"/></svg>