<svg id="sun" xmlns="http://www.w3.org/2000/svg" viewBox="0 0 432.67 448.13"><defs><style>.cls-1{fill:#fcd55b;}.cls-2{fill:#231f20;}</style></defs><path class="cls-1" d="M250.38,470.92c-24.86,0-44.33-14-44.33-31.86,0-10.47,7-20.21,18.83-26.12l1.61-1.16a25.35,25.35,0,0,0,10-25.51c-.2-1-.42-2-.66-3a3.29,3.29,0,0,0-1.94-2.34l-19.48-8.35-5.85-1.9L188,366a3.63,3.63,0,0,0-.73-.08,3.42,3.42,0,0,0-2.39,1l-.42.4-.06,0a30.59,30.59,0,0,0-8.18,29.32l.15.64c6,11.69,6,23.64-.19,32.08-5,6.88-13.33,10.67-23.48,10.67-10.33,0-21.38-3.89-31.1-10.95-20.1-14.61-27.63-37.38-17.13-51.83,5-6.88,13.33-10.67,23.47-10.67a43.62,43.62,0,0,1,7.12.61h2a25.37,25.37,0,0,0,23.07-14.76c.39-.87.76-1.73,1.14-2.63l.09-.2a3.32,3.32,0,0,0-.19-3.05l-10.86-18.2-3.6-5-13.86-15.86a3.48,3.48,0,0,0-2.59-1.15,3.71,3.71,0,0,0-.47,0l-.33,0h-.06a30.6,30.6,0,0,0-24.1,18.94L105,326c-2,13-9.08,22.62-19,25.84A23.61,23.61,0,0,1,78.64,353C63.49,353,48.43,339.26,42,319.54c-3.55-10.93-4-22.23-1.15-31.82,3-10.27,9.32-17.44,17.76-20.18A23.77,23.77,0,0,1,66,266.38c8,0,16.29,3.91,23.3,11l1.57,1.13a25.09,25.09,0,0,0,14.93,4.88,25.4,25.4,0,0,0,12.42-3.26c.87-.49,1.76-1,2.67-1.57a3.3,3.3,0,0,0,1.62-2.55l2-21.74.09-.37a10.32,10.32,0,0,0,.27-2.08,10.68,10.68,0,0,0-.27-2.1l-.09-.36-2-21.59a3.45,3.45,0,0,0-1.83-2.71l-.18-.11.07,0-.15-.08a30.26,30.26,0,0,0-14.31-3.6,30.82,30.82,0,0,0-16.39,4.73l-.55.33c-7,7-15.21,10.92-23.19,10.92a23.83,23.83,0,0,1-7.38-1.16c-8.44-2.74-14.75-9.91-17.76-20.18-2.81-9.59-2.4-20.89,1.15-31.83,6.4-19.71,21.46-33.48,36.61-33.48A23.89,23.89,0,0,1,86,151.83c10,3.25,17.07,13,19,26l.59,1.85a25.31,25.31,0,0,0,21.17,17.35l3.09.31h.35a3.27,3.27,0,0,0,2.47-1.13l14-16,3.61-5,10.8-18.09a3.46,3.46,0,0,0,.11-3.25l-.14-.3a30.58,30.58,0,0,0-25.49-17.12l-.65-.05a44.33,44.33,0,0,1-7,.58c-10.15,0-18.48-3.79-23.47-10.67C94,112,101.51,89.23,121.61,74.61c9.72-7,20.77-10.94,31.1-10.94,10.15,0,18.49,3.79,23.49,10.66,6.16,8.5,6.19,20.54.09,32.28l-.58,1.79a25.31,25.31,0,0,0,6.91,26.51c.68.63,1.36,1.22,2.06,1.84l.26.23a3.23,3.23,0,0,0,2.92.74L208.53,133l5.85-1.9,19.37-8.29a3.43,3.43,0,0,0,2-2.56l.07-.34,0-.08a30.63,30.63,0,0,0-10.59-28.74l-.49-.42C213,84.77,206.05,75.06,206.05,64.64c0-17.87,19.47-31.86,44.33-31.86s44.32,14,44.32,31.86c0,10.47-7,20.2-18.83,26.11l-1.6,1.17a25.31,25.31,0,0,0-10,25.5c.2,1,.42,2,.66,3a3.29,3.29,0,0,0,1.94,2.34l19.48,8.35,5.85,1.9,20.52,4.68a3.65,3.65,0,0,0,.74.08,3.46,3.46,0,0,0,2.38-1l.42-.4.06,0a30.63,30.63,0,0,0,8.19-29.33l-.15-.63c-6-11.69-6-23.65.18-32.09,5-6.87,13.33-10.66,23.48-10.66,10.34,0,21.38,3.89,31.1,10.94,20.11,14.62,27.63,37.39,17.14,51.83-5,6.88-13.34,10.67-23.48,10.67a43.59,43.59,0,0,1-7.12-.6h-2a25.35,25.35,0,0,0-23.06,14.76c-.4.86-.76,1.71-1.14,2.6l-.1.23a3.35,3.35,0,0,0,.19,3.05l10.86,18.2,3.6,5,13.86,15.87a3.48,3.48,0,0,0,2.59,1.15,2.42,2.42,0,0,0,.47,0l.34,0h.05a30.58,30.58,0,0,0,24.1-19l.26-.62c2-13,9.08-22.62,19-25.84a23.94,23.94,0,0,1,7.39-1.16c15.16,0,30.21,13.77,36.61,33.48,3.55,10.94,4,22.24,1.15,31.83-3,10.27-9.32,17.44-17.76,20.18a23.72,23.72,0,0,1-7.37,1.16c-8,0-16.29-3.92-23.3-11l-1.56-1.14a25.28,25.28,0,0,0-27.35-1.62l-2.68,1.57a3.26,3.26,0,0,0-1.61,2.55l-2,21.74-.09.37a10.62,10.62,0,0,0-.26,2.09,11,11,0,0,0,.26,2.1l.09.36,1.95,21.59a3.47,3.47,0,0,0,1.84,2.71l.1.06.15.08a30.21,30.21,0,0,0,14.32,3.6A30.78,30.78,0,0,0,411,277.63l.55-.34c7-7,15.21-10.91,23.19-10.91a23.94,23.94,0,0,1,7.39,1.16c8.43,2.74,14.74,9.91,17.75,20.18,2.81,9.59,2.4,20.89-1.15,31.82-6.4,19.72-21.45,33.49-36.61,33.49a23.94,23.94,0,0,1-7.39-1.16c-10-3.25-17.07-13-19-26.05L395.1,324a25.34,25.34,0,0,0-21.17-17.35c-1-.11-2-.2-3.09-.3l-.35,0a3.26,3.26,0,0,0-2.46,1.14l-14,15.95-3.6,5-10.81,18.09a3.48,3.48,0,0,0-.11,3.26l.13.29a30.61,30.61,0,0,0,25.5,17.12l.65.06a43.17,43.17,0,0,1,7-.58c10.15,0,18.48,3.79,23.47,10.67,10.49,14.44,3,37.21-17.14,51.82C369.42,436.14,358.38,440,348,440c-10.15,0-18.49-3.79-23.48-10.67-6.17-8.49-6.2-20.53-.09-32.27l.58-1.8a25.34,25.34,0,0,0-6.92-26.51c-.71-.65-1.42-1.28-2.16-1.93l-.16-.14a3.29,3.29,0,0,0-2.16-.82,3.14,3.14,0,0,0-.75.09l-20.68,4.69-5.85,1.9L267,380.85a3.43,3.43,0,0,0-2,2.57l-.06.33,0,.07a30.62,30.62,0,0,0,10.59,28.75l.49.43c11.73,5.93,18.71,15.63,18.71,26.06C294.7,456.92,275.23,470.92,250.38,470.92Z" transform="translate(-34.04 -27.78)"/><path class="cls-2" d="M250.38,37.78c21.71,0,39.32,12,39.32,26.86,0,9-6.49,17-16.44,21.83h0l-1.91,1.39a30.26,30.26,0,0,0-11.94,30.54c.21,1,.44,2.08.69,3.15a8.28,8.28,0,0,0,4.88,5.83l19.65,8.42,6.28,2,20.74,4.73a8.27,8.27,0,0,0,1.85.21,8.46,8.46,0,0,0,5.85-2.37,1,1,0,0,0,.23-.19,35.62,35.62,0,0,0,9.82-34.39l-.28-1.19c-5.23-9.81-5.8-20.08-.5-27.38,4.18-5.75,11.26-8.6,19.44-8.6,8.87,0,19,3.35,28.16,10,17.56,12.77,24.75,32.85,16,44.84-4.18,5.76-11.26,8.61-19.43,8.61a39,39,0,0,1-6.7-.6h-2.47a30.28,30.28,0,0,0-27.53,17.68c-.45,1-.86,1.94-1.29,2.95a8.31,8.31,0,0,0,.51,7.59l11,18.37,3.87,5.32,14,16a8.49,8.49,0,0,0,6.35,2.86,8.74,8.74,0,0,0,1.14-.08l.3,0a35.58,35.58,0,0,0,28.16-22.05l.47-1.12c1.55-11,7.12-19.67,15.69-22.45a18.81,18.81,0,0,1,5.84-.92c12.64,0,26.06,12.16,31.86,30,6.7,20.64.7,41.12-13.4,45.7a18.75,18.75,0,0,1-5.83.92c-6.89,0-14-3.63-20-9.82h0l-1.91-1.39a30.27,30.27,0,0,0-32.74-1.92c-.92.52-1.84,1.07-2.78,1.63a8.29,8.29,0,0,0-4,6.44l-1.94,21.3a13.45,13.45,0,0,0,0,6.59l1.91,21.21a8.48,8.48,0,0,0,4.43,6.65l.26.15a35.07,35.07,0,0,0,16.7,4.2,35.91,35.91,0,0,0,19-5.48l1-.65c6-6.21,13.14-9.84,20-9.84a18.8,18.8,0,0,1,5.84.91c14.1,4.58,20.1,25.06,13.4,45.71-5.8,17.86-19.22,30-31.86,30a18.81,18.81,0,0,1-5.84-.92c-8.55-2.78-14.14-11.42-15.69-22.39v0l-.72-2.25a30.29,30.29,0,0,0-25.36-20.8l-3.21-.31a7.14,7.14,0,0,0-.8,0,8.27,8.27,0,0,0-6.25,2.87l-14.09,16.1-3.87,5.32-10.92,18.29a8.47,8.47,0,0,0-.33,8,1.2,1.2,0,0,0,.13.28,35.56,35.56,0,0,0,29.67,20l1.2.1a39,39,0,0,1,6.78-.61c8.18,0,15.25,2.85,19.42,8.6,8.72,12,1.53,32.08-16,44.85-9.14,6.63-19.29,10-28.16,10-8.17,0-15.26-2.85-19.44-8.61-5.29-7.28-4.73-17.54.46-27.33l0,0,.73-2.24a30.28,30.28,0,0,0-8.29-31.73c-.79-.72-1.58-1.42-2.41-2.14a8.22,8.22,0,0,0-5.46-2.07,8.38,8.38,0,0,0-1.92.22l-20.84,4.73-6.28,2.05L265,376.25a8.48,8.48,0,0,0-5,6.27,2.46,2.46,0,0,0-.07.29,35.6,35.6,0,0,0,12.28,33.6l.92.79c10,4.87,16.49,12.85,16.49,21.86,0,14.83-17.61,26.85-39.32,26.85s-39.33-12-39.33-26.85c0-9,6.49-17,16.44-21.83l0,0,1.91-1.38a30.28,30.28,0,0,0,11.94-30.55c-.21-1-.44-2.07-.69-3.14a8.26,8.26,0,0,0-4.87-5.84l-19.66-8.41-6.28-2.05-20.74-4.73a8.86,8.86,0,0,0-1.84-.2,8.48,8.48,0,0,0-5.85,2.36.74.74,0,0,0-.23.2,35.55,35.55,0,0,0-9.82,34.38l.28,1.19c5.22,9.82,5.8,20.08.49,27.38C168,432.18,160.89,435,152.71,435c-8.86,0-19-3.36-28.16-10-17.56-12.77-24.74-32.85-16-44.85,4.18-5.75,11.26-8.61,19.43-8.61a37.94,37.94,0,0,1,6.7.61h2.48a30.28,30.28,0,0,0,27.52-17.68c.45-1,.86-1.95,1.29-2.95a8.33,8.33,0,0,0-.51-7.6l-11-18.37-3.87-5.32-14-16a8.49,8.49,0,0,0-6.36-2.86,7.28,7.28,0,0,0-1.14.08l-.3,0a35.56,35.56,0,0,0-28.15,22l-.48,1.12c-1.55,11-7.12,19.68-15.69,22.46a18.76,18.76,0,0,1-5.84.92c-12.64,0-26-12.17-31.85-30-6.71-20.65-.71-41.13,13.39-45.71a18.78,18.78,0,0,1,5.83-.91c6.9,0,14,3.62,20,9.81v0l1.91,1.38a30.3,30.3,0,0,0,32.74,1.93c.92-.53,1.85-1.07,2.78-1.63a8.28,8.28,0,0,0,4-6.44l1.95-21.31a13.45,13.45,0,0,0,0-6.59l-1.92-21.2a8.49,8.49,0,0,0-4.43-6.66l-.26-.15a35.18,35.18,0,0,0-16.69-4.2,35.84,35.84,0,0,0-19.05,5.49l-1,.64c-6,6.22-13.15,9.85-20,9.85a18.81,18.81,0,0,1-5.84-.92c-14.1-4.58-20.1-25.06-13.39-45.7,5.8-17.87,19.21-30,31.85-30a18.76,18.76,0,0,1,5.84.92C93,159.37,98.62,168,100.17,179h0l.72,2.26A30.28,30.28,0,0,0,126.25,202c1,.12,2.12.22,3.21.32l.8,0a8.27,8.27,0,0,0,6.25-2.87l14.09-16.1,3.87-5.32,10.93-18.28a8.51,8.51,0,0,0,.32-8,1.2,1.2,0,0,0-.13-.28,35.57,35.57,0,0,0-29.67-20l-1.2-.1a39,39,0,0,1-6.78.62c-8.17,0-15.25-2.85-19.42-8.61-8.71-12-1.53-32.07,16-44.84,9.14-6.64,19.29-10,28.16-10,8.18,0,15.26,2.85,19.44,8.6,5.29,7.28,4.73,17.55-.46,27.34h0l-.72,2.24a30.27,30.27,0,0,0,8.28,31.73c.8.73,1.59,1.42,2.41,2.15a8.21,8.21,0,0,0,7.38,1.84l20.84-4.73,6.28-2,19.57-8.37a8.45,8.45,0,0,0,5-6.26,1.63,1.63,0,0,0,.07-.3,35.55,35.55,0,0,0-12.28-33.59l-.92-.79c-10-4.88-16.49-12.85-16.49-21.86,0-14.83,17.61-26.86,39.33-26.86m0-10c-12.5,0-24.38,3.41-33.45,9.61-10.09,6.89-15.88,16.82-15.88,27.25,0,12.18,7.79,23.41,20.9,30.24h0l0,0,.05,0A25.64,25.64,0,0,1,231,118.59l-18.37,7.85-5.42,1.76-19.61,4.45c-.54-.47-1.07-.94-1.6-1.43A20.29,20.29,0,0,1,180.45,110l.47-1.45c6.79-13.34,6.56-27.17-.68-37.13-6-8.21-15.74-12.73-27.53-12.73-11.38,0-23.47,4.22-34,11.89C108.57,77.91,101,87.66,97.27,98c-4.12,11.51-3,23,3.16,31.38,5.94,8.2,15.72,12.73,27.51,12.73a48.91,48.91,0,0,0,7.17-.55h.13a25.61,25.61,0,0,1,21.12,13.87l-10.24,17.15-3.34,4.59-13.25,15.14-2.17-.22a20.32,20.32,0,0,1-17-13.92l-.47-1.46c-2.34-14.78-10.65-25.83-22.36-29.64a28.72,28.72,0,0,0-8.94-1.41c-17.29,0-34.3,15.19-41.36,36.94-3.86,11.88-4.29,24.23-1.19,34.78,3.43,11.73,11.09,20.3,21,23.52A28.66,28.66,0,0,0,66,242.32c9.16,0,18.46-4.24,26.31-12l0,0h0l0,0a25.8,25.8,0,0,1,13.73-4,25.3,25.3,0,0,1,11.5,2.77l1.84,20.34.07.86.17.63a5.2,5.2,0,0,1,.13.91,5.11,5.11,0,0,1-.13.9l-.21.8,0,.68-1.87,20.5c-.64.38-1.25.74-1.87,1.09a20.31,20.31,0,0,1-21.91-1.3l-1.27-.92c-7.89-7.89-17.29-12.22-26.56-12.22a28.6,28.6,0,0,0-8.92,1.41c-9.91,3.21-17.57,11.79-21,23.52-3.1,10.55-2.67,22.9,1.19,34.78C44.34,342.84,61.35,358,78.64,358a28.91,28.91,0,0,0,8.93-1.41c11.58-3.76,19.84-14.62,22.29-29.2l0-.05,0-.1a25.62,25.62,0,0,1,19.72-15.8l13.14,15,3.34,4.6,10.3,17.27c-.29.69-.57,1.34-.86,2a20.32,20.32,0,0,1-18.43,11.84h-1.66a48.44,48.44,0,0,0-7.52-.61c-11.78,0-21.56,4.53-27.52,12.74-6.12,8.43-7.28,19.86-3.16,31.37,3.7,10.35,11.3,20.09,21.4,27.44,10.57,7.67,22.66,11.9,34,11.9,11.79,0,21.57-4.52,27.53-12.73,7.17-9.86,7.47-23.52.87-36.75l0-.06v-.06a25.62,25.62,0,0,1,6.43-24.15h0l.22-.21,19.45,4.43,5.42,1.77,18.49,7.92c.17.77.32,1.46.46,2.12a20.28,20.28,0,0,1-8,20.42l-1.29.94c-13.31,6.8-21.22,18.1-21.22,30.4,0,10.42,5.79,20.35,15.88,27.25,9.07,6.19,20.95,9.6,33.45,9.6s24.37-3.41,33.44-9.6c10.1-6.9,15.88-16.83,15.88-27.25,0-12.19-7.78-23.41-20.9-30.24h0l-.05,0,0,0a25.61,25.61,0,0,1-8.94-23.63l18.36-7.85,5.42-1.77L313.16,371l1.6,1.43a20.3,20.3,0,0,1,5.54,21.24l-.46,1.45c-6.8,13.34-6.57,27.17.67,37.14,6,8.21,15.74,12.73,27.53,12.73,11.38,0,23.47-4.23,34-11.9,10.11-7.35,17.71-17.09,21.41-27.44,4.11-11.51,3-22.94-3.17-31.38-5.94-8.2-15.71-12.72-27.51-12.72a47.67,47.67,0,0,0-7.17.55h-.12a25.61,25.61,0,0,1-21.13-13.88l10.24-17.14,3.34-4.59,13.25-15.14c.73.06,1.46.13,2.17.21a20.3,20.3,0,0,1,16.95,13.93l.47,1.45c2.34,14.79,10.65,25.83,22.36,29.65a29.07,29.07,0,0,0,8.94,1.41c17.3,0,34.31-15.19,41.37-36.95,3.85-11.87,4.28-24.22,1.19-34.77-3.44-11.73-11.1-20.31-21-23.53a28.9,28.9,0,0,0-8.93-1.4c-9.16,0-18.46,4.24-26.31,12l0,0,0,0h0a25.82,25.82,0,0,1-13.73,4,25.18,25.18,0,0,1-11.51-2.77l-1.83-20.33-.08-.87-.17-.63a6.07,6.07,0,0,1-.12-.9,6.18,6.18,0,0,1,.12-.91l.21-.79,0-.69,1.87-20.5,1.87-1.09a20.27,20.27,0,0,1,21.9,1.31l1.27.92c7.89,7.89,17.29,12.22,26.56,12.22a29,29,0,0,0,8.93-1.41c9.9-3.22,17.56-11.79,21-23.52,3.09-10.55,2.66-22.9-1.19-34.78-7.06-21.75-24.07-36.94-41.37-36.94a28.66,28.66,0,0,0-8.93,1.41c-11.58,3.76-19.84,14.62-22.29,29.19l0,.06,0,.09a25.58,25.58,0,0,1-19.71,15.8l-13.14-15-3.34-4.59-10.31-17.28c.29-.68.58-1.34.86-2a20.33,20.33,0,0,1,18.44-11.84h1.65a48.51,48.51,0,0,0,7.52.6c11.78,0,21.56-4.52,27.52-12.73,6.13-8.43,7.28-19.87,3.17-31.38-3.7-10.34-11.3-20.09-21.41-27.43-10.57-7.68-22.66-11.9-34-11.9-11.79,0-21.56,4.52-27.53,12.72-7.17,9.87-7.47,23.52-.87,36.75l0,.06,0,.07a25.62,25.62,0,0,1-6.44,24.14l0,0-.22.21-19.45-4.44-5.41-1.76-18.5-7.92c-.17-.78-.32-1.47-.46-2.13a20.33,20.33,0,0,1,8-20.42l1.29-.94c13.31-6.79,21.22-18.1,21.22-30.39,0-10.43-5.78-20.36-15.88-27.25-9.07-6.2-20.95-9.61-33.44-9.61Z" transform="translate(-34.04 -27.78)"/><rect class="cls-2" x="235.01" y="165.07" width="28.77" height="67.24" rx="8.73"/><rect class="cls-2" x="160.43" y="165.07" width="28.77" height="67.24" rx="8.73"/><path class="cls-2" d="M337.69,276.58a4.88,4.88,0,0,0-4.54,3c-12.47,30.44-44.87,52.18-82.77,52.18s-70.3-21.74-82.77-52.18a4.89,4.89,0,0,0-4.55-3h0a5,5,0,0,0-4.58,6.83c14,34,49.91,58.25,91.9,58.25s77.89-24.25,91.89-58.24a5,5,0,0,0-4.58-6.84Z" transform="translate(-34.04 -27.78)"/></svg>