<svg xmlns="http://www.w3.org/2000/svg" viewBox="0 0 500 500"><defs><style>.cls-1,.cls-3{fill:#e84a24;}.cls-2,.cls-7{fill:#fff;}.cls-2,.cls-3,.cls-4{stroke:#e84a24;}.cls-2,.cls-3,.cls-4,.cls-5{stroke-miterlimit:10;}.cls-4,.cls-5{fill:none;}.cls-5{stroke:#e74b25;}.cls-6{fill:#e74b25;}</style></defs><g id="background"><rect class="cls-1" width="500" height="500" rx="126.86"/></g><g id="icon"><g id="computer"><rect class="cls-2" x="126.79" y="372.01" width="246.43" height="52.39" rx="7.81"/><rect class="cls-2" x="118.79" y="76.3" width="262.86" height="312.59" rx="11.31"/><rect class="cls-2" x="123.01" y="92.03" width="253.21" height="281.76" rx="4.16"/><rect class="cls-2" x="139.44" y="107.82" width="221.56" height="167.39" rx="4.08"/><rect class="cls-2" x="315.12" y="394.32" width="42.31" height="21.36" rx="2.9"/><rect class="cls-2" x="340.95" y="396.76" width="12" height="14.03"/><polygon class="cls-3" points="350.75 401.14 350.75 408 343.45 408 343.45 401.14 344.6 401.14 344.6 399.18 345.99 399.18 345.99 397.43 348.24 397.43 348.24 399.18 349.61 399.18 349.61 401.14 350.75 401.14"/><path class="cls-4" d="M361,314.39V334a4.09,4.09,0,0,1-4.09,4.09H318.26a4.09,4.09,0,0,1-4.09-4.09v-1.86h-70.7a2.55,2.55,0,0,1-2.55-2.54v-9.42a2.55,2.55,0,0,1,2.55-2.55h70.7v-3.25a4.09,4.09,0,0,1,4.09-4.09h38.66A4.09,4.09,0,0,1,361,314.39Z"/><rect class="cls-4" x="321.86" y="315.72" width="28.89" height="18.18" rx="3.36"/><path class="cls-3" d="M350.75,321.84v9.48H322v-3.89H253a1.71,1.71,0,0,1-1.71-1.71v-1.3a1.72,1.72,0,0,1,1.71-1.71h69v-.87Z"/><path class="cls-3" d="M335.74,267.58l-86.12,2.35-85.51-2.35a15.19,15.19,0,0,1-15.19-15.19V132.27a15.19,15.19,0,0,1,15.19-15.19l86.11-1.8,85.52,1.8a15.19,15.19,0,0,1,15.19,15.19V252.39A15.19,15.19,0,0,1,335.74,267.58Z"/><circle class="cls-4" cx="355.77" cy="331.3" r="0.56"/><rect class="cls-5" x="136.84" y="338.35" width="18.46" height="18.46" rx="2.26"/><path class="cls-6" d="M151.52,345a3.45,3.45,0,0,0-1.65,2.9,3.36,3.36,0,0,0,2,3.08,8.33,8.33,0,0,1-1,2.16c-.65.93-1.33,1.87-2.36,1.87s-1.31-.6-2.5-.6-1.58.62-2.52.62-1.61-.87-2.37-1.93a9.33,9.33,0,0,1-1.59-5c0-3,1.92-4.53,3.82-4.53,1,0,1.84.66,2.47.66s1.54-.7,2.68-.7A3.58,3.58,0,0,1,151.52,345ZM148,342.28a3.41,3.41,0,0,0,.81-2.12,1.48,1.48,0,0,0,0-.31A3.42,3.42,0,0,0,146.5,341a3.32,3.32,0,0,0-.84,2.06,1.37,1.37,0,0,0,0,.28h.21A3,3,0,0,0,148,342.28Z"/><g id="Page-1"><g id="Face-ID"><g id="Eye"><path id="Path" class="cls-7" d="M207.92,158.84v13.4a4.7,4.7,0,1,0,9.37,0v-13.4a4.7,4.7,0,1,0-9.37,0Z"/></g><g id="Eye-2" data-name="Eye"><path id="Path-2" data-name="Path" class="cls-7" d="M285.19,158.84v13.4a4.7,4.7,0,1,0,9.37,0v-13.4a4.7,4.7,0,1,0-9.37,0Z"/></g><path id="Mouth" class="cls-7" d="M217.71,226.48a48.74,48.74,0,0,0,65.91,0,4.93,4.93,0,0,0-6.73-7.21,38.87,38.87,0,0,1-52.45,0,4.93,4.93,0,0,0-6.73,7.21Z"/><path id="Nose" class="cls-7" d="M250.66,158.75v34.53c0,2.21-1.08,3.29-3.3,3.29h-3.27a4.93,4.93,0,0,0,0,9.86h3.27c7.67,0,13.17-5.49,13.17-13.15V158.75a4.94,4.94,0,0,0-9.87,0Z"/></g></g></g></g></svg>