<svg xmlns="http://www.w3.org/2000/svg" viewBox="0 0 500 500"><defs><style>.cls-1{fill:#e84a24;}.cls-2{fill:#fff;}</style></defs><g id="background"><rect class="cls-1" width="500" height="500" rx="126.86"/></g><g id="icon"><path class="cls-2" d="M125.51,261h249a0,0,0,0,1,0,0V415.36a19.13,19.13,0,0,1-19.13,19.13H144.63a19.13,19.13,0,0,1-19.13-19.13V261A0,0,0,0,1,125.51,261Z"/><path class="cls-2" d="M242.73,63.28,85.4,225.85A10.12,10.12,0,0,0,92.68,243H407.32a10.12,10.12,0,0,0,7.28-17.16L257.27,63.28A10.11,10.11,0,0,0,242.73,63.28Z"/><rect class="cls-1" x="268.35" y="309.41" width="63.67" height="127.27"/><circle class="cls-1" cx="199.76" cy="332.89" r="35.2"/></g></svg>