<?xml version="1.0" encoding="utf-8"?>
<!-- Generator: Adobe Illustrator 24.0.1, SVG Export Plug-In . SVG Version: 6.00 Build 0)  -->
<svg version="1.1" xmlns="http://www.w3.org/2000/svg" xmlns:xlink="http://www.w3.org/1999/xlink" x="0px" y="0px"
	 viewBox="0 0 1080 1080" style="enable-background:new 0 0 1080 1080;" xml:space="preserve">
<style type="text/css">
	.st0{fill:#00E9AB;}
	.st1{fill:none;stroke:#000000;stroke-width:17;stroke-linecap:round;stroke-miterlimit:10;}
	.st2{fill:none;stroke:#000000;stroke-width:26;stroke-linecap:round;stroke-miterlimit:10;}
	.st3{fill:none;stroke:#000000;stroke-width:15;stroke-linecap:round;stroke-miterlimit:10;}
	.st4{display:none;}
	.st5{display:inline;}
</style>
<g id="Layer_1">
</g>
<g id="Layer_2">
	<circle class="st0" cx="552" cy="514" r="149.5"/>
	<path class="st1" d="M626.74,385.28C671.15,411.2,701,459.36,701,514.5c0,82.57-66.93,149.5-149.5,149.5S402,597.07,402,514.5
		S468.93,365,551.5,365c6.61,0,13.12,0.43,19.5,1.26"/>
	<g>
		<g>
			<line class="st2" x1="580" y1="433" x2="624.21" y2="295.29"/>
			<g>
				<path d="M641,243c1.23,27.54,7.01,63.07,17.43,87.29l-36.42-28.13l-45.98,1.68C598.6,290.2,623.98,264.68,641,243z"/>
			</g>
		</g>
	</g>
	<line class="st2" x1="503" y1="663" x2="442" y2="852"/>
	<circle cx="494.5" cy="468.5" r="14.5"/>
	<circle cx="584.5" cy="516.5" r="14.5"/>
	<path class="st3" d="M610.5,572.86c-18.67,18.33-44.27,29.64-72.5,29.64c-57.16,0-103.5-46.34-103.5-103.5
		c0-5.44,0.42-10.79,1.23-16"/>
	<g>
		<g class="st4">
			<path class="st5" d="M180.49,611.69v-16.3h103.4v16.3l-47.91,5.21h-8.6L180.49,611.69z M235.98,804.08l47.91,5.21v16.3h-103.4
				v-16.3l46.89-5.21H235.98z M210.02,702.96c0-35.74,0-71.83-1.04-107.57h47.07C255,630.44,255,666.53,255,702.96v10.54
				c0,40.26,0,76.35,1.04,112.09h-47.07c1.04-35.05,1.04-71.13,1.04-107.57V702.96z M232.51,716.59v-18.13h138.86v18.13H232.51z
				 M319.99,611.69v-16.3h103.4v16.3l-47.53,5.21h-8.34L319.99,611.69z M375.86,804.08l47.53,5.21v16.3h-103.4v-16.3l47.53-5.21
				H375.86z M348.88,702.96c0-35.74,0-71.83-1.04-107.57h47.07c-1.04,35.05-1.04,71.13-1.04,107.57v15.06
				c0,35.74,0,71.83,1.04,107.57h-47.07c1.04-35.05,1.04-71.13,1.04-112.09V702.96z"/>
			<path class="st5" d="M679.99,724.41c0,7.73-0.79,13.9-2.17,19.05H545.83v-16.48h73.67c16.66,0,20.73-7.09,20.73-19.74
				c0-21.31-13.73-35.91-30.88-35.91c-18.26,0-37.57,17.21-37.57,67.08c0,43.18,21.57,64.48,51.81,64.48
				c20.42,0,33.8-8.92,45.27-21.58l10.02,8.79c-13.38,25.91-36.99,40.38-69.59,40.38c-48.54,0-81.65-32.65-81.65-87.05
				c0-55.51,40.42-88.87,84.34-88.87C652.81,654.56,679.99,682.42,679.99,724.41z"/>
			<path class="st5" d="M764.39,766.46c0,26.17,8,35.02,23.39,35.02c15.66,0,33.07-11.35,46.85-27.3h10.34v20.37h-20.25l11.64-7.63
				c-18.12,28.88-41.46,43.55-67.08,43.55c-28.78,0-47.4-16.66-46.93-62.46l1.17-92.5l9.2,8.88l-31.63-6.94v-13.42l60.54-7.31
				l4.49,3.6l-1.74,48.83V766.46z M831.18,828.88l-3.84-40.73l1.17-112.75l9.2,9.01l-31.12-6.94v-12.78l59.34-7.95l4.49,3.6
				l-1.04,48.83v109.61l-15.84-15.08l36.86,7.83v14.18L831.18,828.88z"/>
		</g>
	</g>
</g>
</svg>
