<?xml version="1.0" encoding="utf-8"?>
<!-- Generator: Adobe Illustrator 24.0.1, SVG Export Plug-In . SVG Version: 6.00 Build 0)  -->
<svg version="1.1" xmlns="http://www.w3.org/2000/svg" xmlns:xlink="http://www.w3.org/1999/xlink" x="0px" y="0px"
	 viewBox="0 0 1080 1080" style="enable-background:new 0 0 1080 1080;" xml:space="preserve">
<style type="text/css">
	.st0{display:none;fill:#FFFFFF;}
	.st1{fill:#00E9AB;}
	.st2{fill:none;stroke:#FFFFFF;stroke-width:17;stroke-linecap:round;stroke-miterlimit:10;}
	.st3{fill:none;stroke:#FFFFFF;stroke-width:26;stroke-linecap:round;stroke-miterlimit:10;}
	.st4{fill:#FFFFFF;}
	.st5{fill:none;stroke:#FFFFFF;stroke-width:15;stroke-linecap:round;stroke-miterlimit:10;}
	.st6{display:none;}
	.st7{display:inline;fill:#00E9AB;}
	.st8{display:inline;fill:none;stroke:#000000;stroke-width:17;stroke-linecap:round;stroke-miterlimit:10;}
	.st9{display:inline;}
	.st10{fill:none;stroke:#000000;stroke-width:26;stroke-linecap:round;stroke-miterlimit:10;}
	.st11{display:inline;fill:none;stroke:#000000;stroke-width:26;stroke-linecap:round;stroke-miterlimit:10;}
	.st12{display:inline;fill:none;stroke:#000000;stroke-width:15;stroke-linecap:round;stroke-miterlimit:10;}
</style>
<g id="background">
	<rect x="-122" y="-54" width="1388" height="1179"/>
	<rect x="-132" y="-51" class="st0" width="1388" height="1179"/>
</g>
<g id="Layer_1">
	<circle class="st1" cx="563.88" cy="477.1" r="149.5"/>
	<path class="st2" d="M638.62,348.38c44.42,25.92,74.26,74.08,74.26,129.22c0,82.57-66.93,149.5-149.5,149.5
		s-149.5-66.93-149.5-149.5s66.93-149.5,149.5-149.5c6.61,0,13.12,0.43,19.5,1.26"/>
	<g>
		<g>
			<line class="st3" x1="591.88" y1="396.1" x2="636.09" y2="258.39"/>
			<g>
				<path class="st4" d="M652.88,206.1c1.23,27.54,7.01,63.07,17.43,87.29l-36.42-28.13l-45.98,1.68
					C610.48,253.3,635.86,227.77,652.88,206.1z"/>
			</g>
		</g>
	</g>
	<line class="st3" x1="514.88" y1="626.1" x2="453.88" y2="815.1"/>
	<circle class="st4" cx="506.38" cy="431.6" r="14.5"/>
	<circle class="st4" cx="596.38" cy="479.6" r="14.5"/>
	<path class="st5" d="M622.39,535.96c-18.67,18.33-44.27,29.64-72.5,29.64c-57.16,0-103.5-46.34-103.5-103.5
		c0-5.44,0.42-10.79,1.23-16"/>
	<g>
		<g>
			<path class="st4" d="M179.37,611.79v-16.3h103.4v16.3l-47.91,5.21h-8.6L179.37,611.79z M234.86,804.18l47.91,5.21v16.3h-103.4
				v-16.3l46.89-5.21H234.86z M208.9,703.06c0-35.74,0-71.83-1.04-107.57h47.07c-1.04,35.05-1.04,71.13-1.04,107.57v10.54
				c0,40.26,0,76.35,1.04,112.09h-47.07c1.04-35.05,1.04-71.13,1.04-107.57V703.06z M231.39,716.68v-18.13h138.86v18.13H231.39z
				 M318.87,611.79v-16.3h103.4v16.3l-47.53,5.21h-8.34L318.87,611.79z M374.74,804.18l47.53,5.21v16.3h-103.4v-16.3l47.53-5.21
				H374.74z M347.76,703.06c0-35.74,0-71.83-1.04-107.57h47.07c-1.04,35.05-1.04,71.13-1.04,107.57v15.06
				c0,35.74,0,71.83,1.04,107.57h-47.07c1.04-35.05,1.04-71.13,1.04-112.09V703.06z"/>
			<path class="st4" d="M678.87,724.5c0,7.73-0.79,13.9-2.17,19.05H544.71v-16.48h73.67c16.66,0,20.73-7.09,20.73-19.74
				c0-21.31-13.73-35.91-30.88-35.91c-18.26,0-37.57,17.21-37.57,67.08c0,43.18,21.57,64.48,51.81,64.48
				c20.42,0,33.8-8.92,45.27-21.58l10.02,8.79c-13.38,25.91-36.99,40.38-69.59,40.38c-48.54,0-81.65-32.65-81.65-87.05
				c0-55.51,40.42-88.87,84.34-88.87C651.69,654.66,678.87,682.51,678.87,724.5z"/>
			<path class="st4" d="M763.27,766.56c0,26.17,8,35.02,23.39,35.02c15.66,0,33.07-11.35,46.85-27.3h10.34v20.37h-20.25l11.64-7.63
				c-18.12,28.88-41.46,43.55-67.08,43.55c-28.78,0-47.4-16.66-46.93-62.46l1.17-92.5l9.2,8.89l-31.63-6.94v-13.42l60.54-7.31
				l4.49,3.6l-1.74,48.83V766.56z M830.06,828.97l-3.84-40.73l1.17-112.75l9.2,9.01l-31.12-6.94v-12.78l59.34-7.95l4.49,3.6
				l-1.04,48.83v109.61L852.4,803.8l36.86,7.83v14.18L830.06,828.97z"/>
		</g>
	</g>
</g>
<g id="Layer_2" class="st6">
	<circle class="st7" cx="565" cy="477" r="149.5"/>
	<path class="st8" d="M639.74,348.28C684.15,374.2,714,422.36,714,477.5c0,82.57-66.93,149.5-149.5,149.5S415,560.07,415,477.5
		S481.93,328,564.5,328c6.61,0,13.12,0.43,19.5,1.26"/>
	<g class="st9">
		<g>
			<line class="st10" x1="593" y1="396" x2="637.21" y2="258.29"/>
			<g>
				<path d="M654,206c1.23,27.54,7.01,63.07,17.43,87.29l-36.42-28.13l-45.98,1.68C611.6,253.2,636.98,227.68,654,206z"/>
			</g>
		</g>
	</g>
	<line class="st11" x1="516" y1="626" x2="455" y2="815"/>
	<circle class="st9" cx="507.5" cy="431.5" r="14.5"/>
	<circle class="st9" cx="597.5" cy="479.5" r="14.5"/>
	<path class="st12" d="M623.5,535.86c-18.67,18.33-44.27,29.64-72.5,29.64c-57.16,0-103.5-46.34-103.5-103.5
		c0-5.44,0.42-10.79,1.23-16"/>
	<g class="st9">
		<g>
			<path d="M180.49,611.69v-16.3h103.4v16.3l-47.91,5.21h-8.6L180.49,611.69z M235.98,804.08l47.91,5.21v16.3h-103.4v-16.3
				l46.89-5.21H235.98z M210.02,702.96c0-35.74,0-71.83-1.04-107.57h47.07C255,630.44,255,666.53,255,702.96v10.54
				c0,40.26,0,76.35,1.04,112.09h-47.07c1.04-35.05,1.04-71.13,1.04-107.57V702.96z M232.51,716.59v-18.13h138.86v18.13H232.51z
				 M319.99,611.69v-16.3h103.4v16.3l-47.53,5.21h-8.34L319.99,611.69z M375.86,804.08l47.53,5.21v16.3h-103.4v-16.3l47.53-5.21
				H375.86z M348.88,702.96c0-35.74,0-71.83-1.04-107.57h47.07c-1.04,35.05-1.04,71.13-1.04,107.57v15.06
				c0,35.74,0,71.83,1.04,107.57h-47.07c1.04-35.05,1.04-71.13,1.04-112.09V702.96z"/>
			<path d="M679.99,724.41c0,7.73-0.79,13.9-2.17,19.05H545.83v-16.48h73.67c16.66,0,20.73-7.09,20.73-19.74
				c0-21.31-13.73-35.91-30.88-35.91c-18.26,0-37.57,17.21-37.57,67.08c0,43.18,21.57,64.48,51.81,64.48
				c20.42,0,33.8-8.92,45.27-21.58l10.02,8.79c-13.38,25.91-36.99,40.38-69.59,40.38c-48.54,0-81.65-32.65-81.65-87.05
				c0-55.51,40.42-88.87,84.34-88.87C652.81,654.56,679.99,682.42,679.99,724.41z"/>
			<path d="M764.39,766.46c0,26.17,8,35.02,23.39,35.02c15.66,0,33.07-11.35,46.85-27.3h10.34v20.37h-20.25l11.64-7.63
				c-18.12,28.88-41.46,43.55-67.08,43.55c-28.78,0-47.4-16.66-46.93-62.46l1.17-92.5l9.2,8.88l-31.63-6.94v-13.42l60.54-7.31
				l4.49,3.6l-1.74,48.83V766.46z M831.18,828.88l-3.84-40.73l1.17-112.75l9.2,9.01l-31.12-6.94v-12.78l59.34-7.95l4.49,3.6
				l-1.04,48.83v109.61l-15.84-15.08l36.86,7.83v14.18L831.18,828.88z"/>
		</g>
	</g>
</g>
</svg>
