<?xml version="1.0" encoding="utf-8"?>
<!-- Generator: Adobe Illustrator 28.1.0, SVG Export Plug-In . SVG Version: 6.00 Build 0)  -->
<svg version="1.1" id="Layer_1" xmlns="http://www.w3.org/2000/svg" xmlns:xlink="http://www.w3.org/1999/xlink" x="0px" y="0px"
	 viewBox="0 0 512 512" style="enable-background:new 0 0 512 512;" xml:space="preserve">
<style type="text/css">
	.st0{fill:#FFFFFF;}
</style>
<path d="M76.8,0h358.4C477.6,0,512,34.4,512,76.8v358.4c0,42.4-34.4,76.8-76.8,76.8H76.8C34.4,512,0,477.6,0,435.2V76.8
	C0,34.4,34.4,0,76.8,0z"/>
<path class="st0" d="M166.7,135.8C202.8,163,241.7,218,256,247.6c14.3-29.5,53.2-84.6,89.3-111.7c26.1-19.6,68.4-34.7,68.4,13.5
	c0,9.6-5.5,80.9-8.8,92.5c-11.3,40.2-52.3,50.5-88.8,44.3c63.8,10.9,80,46.8,45,82.8c-66.6,68.3-95.7-17.1-103.1-39
	c-1.4-4-2-5.9-2-4.3c0-1.6-0.6,0.3-2,4.3c-7.5,21.9-36.6,107.3-103.1,39c-35-36-18.8-71.9,45-82.8c-36.5,6.2-77.5-4.1-88.8-44.3
	c-3.2-11.6-8.8-82.9-8.8-92.5C98.3,101.1,140.6,116.2,166.7,135.8L166.7,135.8z"/>
</svg>
