<?xml version="1.0" encoding="utf-8"?>
<!-- Generator: Adobe Illustrator 28.1.0, SVG Export Plug-In . SVG Version: 6.00 Build 0)  -->
<svg version="1.1" id="Layer_1" xmlns="http://www.w3.org/2000/svg" xmlns:xlink="http://www.w3.org/1999/xlink" x="0px" y="0px"
	 viewBox="0 0 512 512" style="enable-background:new 0 0 512 512;" xml:space="preserve">
<style type="text/css">
	.st0{fill:#FFFFFF;}
</style>
<path d="M76.8,0h358.4C477.6,0,512,34.4,512,76.8v358.4c0,42.4-34.4,76.8-76.8,76.8H76.8C34.4,512,0,477.6,0,435.2V76.8
	C0,34.4,34.4,0,76.8,0z"/>
<path class="st0" d="M188,256c0,15.2,5,29.3,13.5,40.7C189.1,313.3,169.3,324,147,324c-37.6,0-68-30.4-68-68s30.4-68,68-68
	c22.3,0,42.1,10.7,54.5,27.3C193,226.7,188,240.8,188,256z"/>
<path class="st0" d="M297,256c0,15.2,5,29.3,13.5,40.7C298.1,313.3,278.3,324,256,324s-42.1-10.7-54.5-27.3
	C210,285.3,215,271.2,215,256s-5-29.3-13.5-40.7c12.4-16.6,32.2-27.3,54.5-27.3s42.1,10.7,54.5,27.3C302,226.7,297,240.8,297,256z"
	/>
<path class="st0" d="M433,256c0,37.6-30.4,68-68,68c-22.3,0-42.1-10.7-54.5-27.3C319,285.3,324,271.2,324,256s-5-29.3-13.5-40.7
	c12.4-16.6,32.2-27.3,54.5-27.3C402.6,188,433,218.4,433,256z"/>
</svg>
