<?xml version="1.0" encoding="utf-8"?>
<!-- Generator: Adobe Illustrator 28.1.0, SVG Export Plug-In . SVG Version: 6.00 Build 0)  -->
<svg version="1.1" id="Layer_1" xmlns="http://www.w3.org/2000/svg" xmlns:xlink="http://www.w3.org/1999/xlink" x="0px" y="0px"
	 viewBox="0 0 512 512" style="enable-background:new 0 0 512 512;" xml:space="preserve">
<style type="text/css">
	.st0{fill-rule:evenodd;clip-rule:evenodd;fill:#FFFFFF;}
</style>
<path d="M76.8,0h358.4C477.6,0,512,34.4,512,76.8v358.4c0,42.4-34.4,76.8-76.8,76.8H76.8C34.4,512,0,477.6,0,435.2V76.8
	C0,34.4,34.4,0,76.8,0z"/>
<path class="st0" d="M410.1,410.1h-63.3V302.2c0-29.6-11.2-46.1-34.6-46.1c-25.5,0-38.8,17.2-38.8,46.1V410h-61V204.6h61v27.7
	c0,0,18.3-33.9,61.9-33.9s74.8,26.6,74.8,81.6L410.1,410.1L410.1,410.1z M139.6,177.8c-20.8,0-37.6-17-37.6-37.9
	s16.8-37.9,37.6-37.9s37.6,17,37.6,37.9S160.3,177.8,139.6,177.8z M108.1,410.1h63.6V204.6h-63.6V410.1z"/>
</svg>
